<svg width="162" height="162" viewBox="0 0 162 162" fill="none" xmlns="http://www.w3.org/2000/svg">
<g filter="url(#filter0_i_575_6731)">
<circle cx="80.9997" cy="81" r="58.1081" fill="url(#paint0_linear_575_6731)"/>
</g>
<g filter="url(#filter1_i_575_6731)">
<circle cx="80.9993" cy="81" r="27.8919" fill="url(#paint1_linear_575_6731)"/>
</g>
<g clip-path="url(#clip0_575_6731)">
<path d="M72.436 93.4868C72.2558 93.4868 72.0932 93.394 72.0026 93.237C71.9119 93.08 71.9119 92.8931 72.0026 92.7372L77.207 83.7225L77.1606 83.6949C74.8718 82.3249 73.4975 79.8195 73.5715 77.1536C73.6246 75.2574 74.4063 73.4706 75.7719 72.1239C77.1374 70.7783 78.9341 70.0209 80.8315 69.9943C80.868 69.9943 80.9045 69.9943 80.9398 69.9943C85.0043 69.9943 88.3115 73.3014 88.3115 77.3659C88.3115 79.9455 86.9349 82.3703 84.7191 83.696L84.6726 83.7236L89.8771 92.7383C89.9678 92.8953 89.9678 93.0822 89.8771 93.2381C89.7864 93.3951 89.625 93.488 89.4437 93.488H72.436V93.4868Z" fill="#2C1A14"/>
</g>
<defs>
<filter id="filter0_i_575_6731" x="22.8916" y="22.8919" width="116.216" height="116.216" filterUnits="userSpaceOnUse" color-interpolation-filters="sRGB">
<feFlood flood-opacity="0" result="BackgroundImageFix"/>
<feBlend mode="normal" in="SourceGraphic" in2="BackgroundImageFix" result="shape"/>
<feColorMatrix in="SourceAlpha" type="matrix" values="0 0 0 0 0 0 0 0 0 0 0 0 0 0 0 0 0 0 127 0" result="hardAlpha"/>
<feOffset dy="1.13158"/>
<feComposite in2="hardAlpha" operator="arithmetic" k2="-1" k3="1"/>
<feColorMatrix type="matrix" values="0 0 0 0 1 0 0 0 0 0.831373 0 0 0 0 0.541176 0 0 0 0.5 0"/>
<feBlend mode="normal" in2="shape" result="effect1_innerShadow_575_6731"/>
</filter>
<filter id="filter1_i_575_6731" x="53.1074" y="53.1081" width="55.7842" height="55.7838" filterUnits="userSpaceOnUse" color-interpolation-filters="sRGB">
<feFlood flood-opacity="0" result="BackgroundImageFix"/>
<feBlend mode="normal" in="SourceGraphic" in2="BackgroundImageFix" result="shape"/>
<feColorMatrix in="SourceAlpha" type="matrix" values="0 0 0 0 0 0 0 0 0 0 0 0 0 0 0 0 0 0 127 0" result="hardAlpha"/>
<feOffset dy="1.04348"/>
<feComposite in2="hardAlpha" operator="arithmetic" k2="-1" k3="1"/>
<feColorMatrix type="matrix" values="0 0 0 0 1 0 0 0 0 0.831373 0 0 0 0 0.541176 0 0 0 1 0"/>
<feBlend mode="normal" in2="shape" result="effect1_innerShadow_575_6731"/>
</filter>
<linearGradient id="paint0_linear_575_6731" x1="80.9997" y1="22.8919" x2="80.9997" y2="139.108" gradientUnits="userSpaceOnUse">
<stop stop-color="#FFD48A" stop-opacity="0.15"/>
<stop offset="1" stop-color="#FFC664" stop-opacity="0.3"/>
</linearGradient>
<linearGradient id="paint1_linear_575_6731" x1="80.9993" y1="53.1081" x2="80.9993" y2="108.892" gradientUnits="userSpaceOnUse">
<stop stop-color="#FFD48A" stop-opacity="0.58"/>
<stop offset="1" stop-color="#FFCE79"/>
</linearGradient>
<clipPath id="clip0_575_6731">
<rect width="18.12" height="23.6042" fill="white" transform="translate(71.8799 69.9379)"/>
</clipPath>
</defs>
</svg>
