<svg width="11" height="13" viewBox="0 0 11 13" fill="none" xmlns="http://www.w3.org/2000/svg">
<path d="M5.5 1.50008V0.38133C5.5 0.10008 5.1625 -0.0374199 4.96875 0.16258L3.21875 1.90633C3.09375 2.03133 3.09375 2.22508 3.21875 2.35008L4.9625 4.09383C5.1625 4.28758 5.5 4.15008 5.5 3.86883V2.75008C7.56875 2.75008 9.25 4.43133 9.25 6.50008C9.25 6.99383 9.15625 7.47508 8.975 7.90633C8.88125 8.13133 8.95 8.38758 9.11875 8.55633C9.4375 8.87508 9.975 8.76258 10.1438 8.34383C10.375 7.77508 10.5 7.15008 10.5 6.50008C10.5 3.73758 8.2625 1.50008 5.5 1.50008ZM5.5 10.2501C3.43125 10.2501 1.75 8.56883 1.75 6.50008C1.75 6.00633 1.84375 5.52508 2.025 5.09383C2.11875 4.86883 2.05 4.61258 1.88125 4.44383C1.5625 4.12508 1.025 4.23758 0.85625 4.65633C0.625 5.22508 0.5 5.85008 0.5 6.50008C0.5 9.26258 2.7375 11.5001 5.5 11.5001V12.6188C5.5 12.9001 5.8375 13.0376 6.03125 12.8376L7.775 11.0938C7.9 10.9688 7.9 10.7751 7.775 10.6501L6.03125 8.90633C5.98719 8.86314 5.93133 8.83396 5.87071 8.82247C5.8101 8.81097 5.74743 8.81768 5.69062 8.84174C5.63381 8.8658 5.58539 8.90614 5.55147 8.95768C5.51755 9.00921 5.49964 9.06963 5.5 9.13133V10.2501Z" fill="#E9E4DF"/>
</svg>
