<svg width="15" height="15" viewBox="0 0 15 15" fill="none" xmlns="http://www.w3.org/2000/svg">
<path d="M12.5 11.05H11.05V12.5C11.05 12.9111 10.8867 13.3053 10.596 13.596C10.3053 13.8867 9.91109 14.05 9.5 14.05H2.5C2.08891 14.05 1.69467 13.8867 1.40398 13.596C1.1133 13.3053 0.95 12.9111 0.95 12.5V5.5C0.95 5.08891 1.1133 4.69467 1.40398 4.40398C1.69467 4.1133 2.08891 3.95 2.5 3.95H3.95V2.5C3.95 2.08891 4.1133 1.69467 4.40398 1.40398C4.69467 1.1133 5.08891 0.95 5.5 0.95H12.5C12.9111 0.95 13.3053 1.1133 13.596 1.40398C13.8867 1.69467 14.05 2.08891 14.05 2.5V9.5C14.05 9.91109 13.8867 10.3053 13.596 10.596C13.3053 10.8867 12.9111 11.05 12.5 11.05ZM11.05 9.95H12.5C12.6193 9.95 12.7338 9.90259 12.8182 9.8182C12.9026 9.73381 12.95 9.61935 12.95 9.5V2.5C12.95 2.38065 12.9026 2.26619 12.8182 2.1818C12.7338 2.09741 12.6193 2.05 12.5 2.05H5.5C5.38065 2.05 5.26619 2.09741 5.1818 2.1818C5.09741 2.26619 5.05 2.38065 5.05 2.5V3.95H9.5C9.91109 3.95 10.3053 4.1133 10.596 4.40398C10.8867 4.69467 11.05 5.08891 11.05 5.5V9.95ZM9.95 5.5C9.95 5.38065 9.90259 5.26619 9.8182 5.1818C9.73381 5.09741 9.61935 5.05 9.5 5.05H2.5C2.38065 5.05 2.26619 5.09741 2.1818 5.1818C2.09741 5.26619 2.05 5.38065 2.05 5.5V12.5C2.05 12.6193 2.09741 12.7338 2.1818 12.8182C2.26619 12.9026 2.38065 12.95 2.5 12.95H9.5C9.61935 12.95 9.73381 12.9026 9.8182 12.8182C9.90259 12.7338 9.95 12.6193 9.95 12.5V5.5Z" fill="#959595" stroke="#959595" stroke-width="0.1"/>
</svg>
