<svg width="15" height="16" viewBox="0 0 15 16" fill="none" xmlns="http://www.w3.org/2000/svg">
<path d="M14.4 5.552C14.3917 5.47851 14.3756 5.4061 14.352 5.336V5.264C14.3135 5.18174 14.2622 5.10613 14.2 5.04L9.4 0.24C9.33387 0.177773 9.25826 0.126465 9.176 0.0879999C9.15212 0.0846081 9.12788 0.0846081 9.104 0.0879999C9.02273 0.041393 8.93298 0.0114754 8.84 0H5.6C4.96348 0 4.35303 0.252856 3.90294 0.702944C3.45286 1.15303 3.2 1.76348 3.2 2.4V3.2H2.4C1.76348 3.2 1.15303 3.45286 0.702944 3.90294C0.252856 4.35303 0 4.96348 0 5.6V13.6C0 14.2365 0.252856 14.847 0.702944 15.2971C1.15303 15.7471 1.76348 16 2.4 16H8.8C9.43652 16 10.047 15.7471 10.4971 15.2971C10.9471 14.847 11.2 14.2365 11.2 13.6V12.8H12C12.6365 12.8 13.247 12.5471 13.6971 12.0971C14.1471 11.647 14.4 11.0365 14.4 10.4V5.552ZM9.6 2.728L11.672 4.8H10.4C10.1878 4.8 9.98434 4.71571 9.83431 4.56569C9.68429 4.41566 9.6 4.21217 9.6 4V2.728ZM9.6 13.6C9.6 13.8122 9.51571 14.0157 9.36568 14.1657C9.21566 14.3157 9.01217 14.4 8.8 14.4H2.4C2.18783 14.4 1.98434 14.3157 1.83431 14.1657C1.68429 14.0157 1.6 13.8122 1.6 13.6V5.6C1.6 5.38783 1.68429 5.18434 1.83431 5.03431C1.98434 4.88429 2.18783 4.8 2.4 4.8H3.2V10.4C3.2 11.0365 3.45286 11.647 3.90294 12.0971C4.35303 12.5471 4.96348 12.8 5.6 12.8H9.6V13.6ZM12.8 10.4C12.8 10.6122 12.7157 10.8157 12.5657 10.9657C12.4157 11.1157 12.2122 11.2 12 11.2H5.6C5.38783 11.2 5.18434 11.1157 5.03431 10.9657C4.88429 10.8157 4.8 10.6122 4.8 10.4V2.4C4.8 2.18783 4.88429 1.98434 5.03431 1.83431C5.18434 1.68429 5.38783 1.6 5.6 1.6H8V4C8 4.63652 8.25286 5.24697 8.70294 5.69706C9.15303 6.14714 9.76348 6.4 10.4 6.4H12.8V10.4Z" fill="#FFDC8B"/>
</svg>
