<svg width="14" height="14" viewBox="0 0 14 14" fill="none" xmlns="http://www.w3.org/2000/svg">
<path d="M7 10.1281C6.88333 10.1281 6.77396 10.1097 6.67188 10.073C6.56979 10.0368 6.475 9.975 6.3875 9.8875L3.2375 6.7375C3.07708 6.57708 2.99688 6.37292 2.99688 6.125C2.99688 5.87708 3.07708 5.67292 3.2375 5.5125C3.39792 5.35208 3.60558 5.26808 3.8605 5.2605C4.116 5.2535 4.32396 5.33021 4.48438 5.49062L6.125 7.13125V0.875C6.125 0.627083 6.209 0.419125 6.377 0.251125C6.54442 0.0837085 6.75208 0 7 0C7.24792 0 7.45588 0.0837085 7.62388 0.251125C7.79129 0.419125 7.875 0.627083 7.875 0.875V7.13125L9.51562 5.49062C9.67604 5.33021 9.884 5.2535 10.1395 5.2605C10.3944 5.26808 10.6021 5.35208 10.7625 5.5125C10.9229 5.67292 11.0031 5.87708 11.0031 6.125C11.0031 6.37292 10.9229 6.57708 10.7625 6.7375L7.6125 9.8875C7.525 9.975 7.43021 10.0368 7.32812 10.073C7.22604 10.1097 7.11667 10.1281 7 10.1281ZM1.75 14C1.26875 14 0.856917 13.8288 0.5145 13.4864C0.1715 13.1434 0 12.7312 0 12.25V10.5C0 10.2521 0.0837085 10.0441 0.251125 9.87612C0.419125 9.70871 0.627083 9.625 0.875 9.625C1.12292 9.625 1.33087 9.70871 1.49887 9.87612C1.66629 10.0441 1.75 10.2521 1.75 10.5V12.25H12.25V10.5C12.25 10.2521 12.334 10.0441 12.502 9.87612C12.6694 9.70871 12.8771 9.625 13.125 9.625C13.3729 9.625 13.5806 9.70871 13.748 9.87612C13.916 10.0441 14 10.2521 14 10.5V12.25C14 12.7312 13.8288 13.1434 13.4864 13.4864C13.1434 13.8288 12.7312 14 12.25 14H1.75Z" fill="#FFDC8B"/>
</svg>
