<svg width="162" height="161" viewBox="0 0 162 161" fill="none" xmlns="http://www.w3.org/2000/svg">
<g filter="url(#filter0_i_2176_8501)">
<circle cx="80.9997" cy="80.1892" r="58.1081" fill="url(#paint0_linear_2176_8501)"/>
</g>
<g filter="url(#filter1_i_2176_8501)">
<circle cx="80.9993" cy="80.1888" r="27.8919" fill="url(#paint1_linear_2176_8501)"/>
</g>
<g clip-path="url(#clip0_2176_8501)">
<path d="M72.436 92.6761C72.2558 92.6761 72.0932 92.5832 72.0026 92.4262C71.9119 92.2692 71.9119 92.0824 72.0026 91.9265L77.207 82.9118L77.1606 82.8842C74.8718 81.5142 73.4975 79.0087 73.5715 76.3429C73.6246 74.4467 74.4063 72.6599 75.7719 71.3131C77.1374 69.9675 78.9341 69.2101 80.8315 69.1836C80.868 69.1836 80.9045 69.1836 80.9398 69.1836C85.0043 69.1836 88.3115 72.4907 88.3115 76.5552C88.3115 79.1348 86.9349 81.5595 84.7191 82.8853L84.6726 82.9129L89.8771 91.9276C89.9678 92.0846 89.9678 92.2714 89.8771 92.4273C89.7864 92.5843 89.625 92.6772 89.4437 92.6772H72.436V92.6761Z" fill="#2C1A14"/>
</g>
<defs>
<filter id="filter0_i_2176_8501" x="22.8916" y="22.0811" width="116.216" height="116.216" filterUnits="userSpaceOnUse" color-interpolation-filters="sRGB">
<feFlood flood-opacity="0" result="BackgroundImageFix"/>
<feBlend mode="normal" in="SourceGraphic" in2="BackgroundImageFix" result="shape"/>
<feColorMatrix in="SourceAlpha" type="matrix" values="0 0 0 0 0 0 0 0 0 0 0 0 0 0 0 0 0 0 127 0" result="hardAlpha"/>
<feOffset dy="1.13158"/>
<feComposite in2="hardAlpha" operator="arithmetic" k2="-1" k3="1"/>
<feColorMatrix type="matrix" values="0 0 0 0 1 0 0 0 0 0.831373 0 0 0 0 0.541176 0 0 0 0.5 0"/>
<feBlend mode="normal" in2="shape" result="effect1_innerShadow_2176_8501"/>
</filter>
<filter id="filter1_i_2176_8501" x="53.1074" y="52.2969" width="55.7842" height="55.7842" filterUnits="userSpaceOnUse" color-interpolation-filters="sRGB">
<feFlood flood-opacity="0" result="BackgroundImageFix"/>
<feBlend mode="normal" in="SourceGraphic" in2="BackgroundImageFix" result="shape"/>
<feColorMatrix in="SourceAlpha" type="matrix" values="0 0 0 0 0 0 0 0 0 0 0 0 0 0 0 0 0 0 127 0" result="hardAlpha"/>
<feOffset dy="1.04348"/>
<feComposite in2="hardAlpha" operator="arithmetic" k2="-1" k3="1"/>
<feColorMatrix type="matrix" values="0 0 0 0 1 0 0 0 0 0.831373 0 0 0 0 0.541176 0 0 0 1 0"/>
<feBlend mode="normal" in2="shape" result="effect1_innerShadow_2176_8501"/>
</filter>
<linearGradient id="paint0_linear_2176_8501" x1="80.9997" y1="22.0811" x2="80.9997" y2="138.297" gradientUnits="userSpaceOnUse">
<stop stop-color="#FFD48A" stop-opacity="0.15"/>
<stop offset="1" stop-color="#FFC664" stop-opacity="0.3"/>
</linearGradient>
<linearGradient id="paint1_linear_2176_8501" x1="80.9993" y1="52.2969" x2="80.9993" y2="108.081" gradientUnits="userSpaceOnUse">
<stop stop-color="#FFD48A" stop-opacity="0.58"/>
<stop offset="1" stop-color="#FFCE79"/>
</linearGradient>
<clipPath id="clip0_2176_8501">
<rect width="18.12" height="23.6042" fill="white" transform="translate(71.8799 69.127)"/>
</clipPath>
</defs>
</svg>
