<svg width="263" height="31" viewBox="0 0 263 31" fill="none" xmlns="http://www.w3.org/2000/svg">
<path d="M24.7983 0L24.2575 2.90422H11.0405C6.18375 2.90422 2.53523 5.75035 1.7095 10.178L0 19.3843H9.66343L10.7688 13.4439C11.03 12.0446 12.1828 11.1443 13.7209 11.1443H32.3856L34.4591 0H24.7957H24.7983Z" fill="#FFCF8A"/>
<path d="M17.2505 30.5286L17.7913 27.6244H31.0057C35.8625 27.6244 39.511 24.7783 40.3367 20.3507L42.0489 11.1443L32.3856 11.1443L31.2801 17.0847C31.0189 18.484 29.866 19.3843 28.328 19.3843L9.66343 19.3843L7.58973 30.5286H17.2532H17.2505Z" fill="#FFCF8A"/>
<path d="M54.0689 25.0149H58.7221V19.6808H62.524C67.4041 19.6808 69.7307 17.2408 69.7307 13.0983C69.7307 8.58706 66.865 6.34561 62.0984 6.34561H54.0689V25.0149ZM58.7221 16.5598V10.0057H61.9566C64.1696 10.0057 65.3613 11.1974 65.3613 13.3253C65.3613 15.51 64.2831 16.5598 62.3254 16.5598H58.7221Z" fill="#E9E4DF"/>
<path d="M71.6634 25.0149H76.3165V18.0636H80.8278C82.5869 18.0636 83.2111 18.8013 83.2111 20.5036V25.0149H87.8642V20.3618C87.8642 18.2622 87.0414 16.7868 85.1972 16.3612V16.3045C86.9563 15.7937 87.9777 14.29 87.9777 11.9067C87.9777 8.38845 85.3107 6.34561 80.3738 6.34561H71.6634V25.0149ZM76.3165 15.2547V10.0057H80.3454C82.5018 10.0057 83.5232 10.9987 83.5232 12.6444C83.5232 14.3751 82.5302 15.2547 80.5724 15.2547H76.3165Z" fill="#E9E4DF"/>
<path d="M99.9838 25.2986C105.63 25.2986 109.999 21.6953 109.999 15.5951C109.999 9.60848 105.63 6.06188 99.9838 6.06188C94.3377 6.06188 89.9682 9.60848 89.9682 15.5951C89.9682 21.6953 94.3377 25.2986 99.9838 25.2986ZM99.9838 21.6385C97.0331 21.6385 94.7916 19.3971 94.7916 15.6235C94.7916 11.9067 97.0331 9.72197 99.9838 9.72197C102.935 9.72197 105.176 11.9067 105.176 15.6235C105.176 19.3971 102.935 21.6385 99.9838 21.6385Z" fill="#E9E4DF"/>
<path d="M121.707 25.2986C127.353 25.2986 131.722 21.6953 131.722 15.5951C131.722 9.60848 127.353 6.06188 121.707 6.06188C116.061 6.06188 111.691 9.60848 111.691 15.5951C111.691 21.6953 116.061 25.2986 121.707 25.2986ZM121.707 21.6385C118.756 21.6385 116.515 19.3971 116.515 15.6235C116.515 11.9067 118.756 9.72197 121.707 9.72197C124.658 9.72197 126.899 11.9067 126.899 15.6235C126.899 19.3971 124.658 21.6385 121.707 21.6385Z" fill="#E9E4DF"/>
<path d="M133.84 25.0149H138.493V17.6947H145.331V14.5737H138.493V10.0057H146.749V6.34561H133.84V25.0149Z" fill="#E9E4DF"/>
<path d="M158.846 24.7357H162.467L166.478 11.2266H166.562L170.461 24.7357H174.138L179.904 6.40788H176.589L172.467 20.5855H172.383L168.372 6.51929H165.03L160.963 20.5855H160.879L156.701 6.40788H153.108L158.846 24.7357Z" fill="#E9E4DF"/>
<path d="M194.342 24.7357H198.214L190.777 6.40788H186.71L179.245 24.7357H182.699L184.259 20.6134H192.81L194.342 24.7357ZM185.095 18.3851L188.521 9.24898H188.576L191.975 18.3851H185.095Z" fill="#E9E4DF"/>
<path d="M201.574 24.7357H213.997V21.9504H204.917V6.40788H201.574V24.7357Z" fill="#E9E4DF"/>
<path d="M217.375 24.7357H229.797V21.9504H220.717V6.40788H217.375V24.7357Z" fill="#E9E4DF"/>
<path d="M233.175 24.7357H245.96V21.9504H236.517V16.6024H243.815V14.4298H236.517V9.19327H245.709V6.40788H233.175V24.7357Z" fill="#E9E4DF"/>
<path d="M253.975 24.7357H257.318V9.16542H263V6.40788H248.293V9.16542H253.975V24.7357Z" fill="#E9E4DF"/>
</svg>
