<svg width="29" height="29" viewBox="0 0 29 29" fill="none" xmlns="http://www.w3.org/2000/svg">
<circle cx="14.5" cy="14.5" r="12.5" fill="#28422E" stroke="#131313" stroke-width="3"/>
<path d="M14.5244 21.467V17.1287H10.2056C10.0474 17.1287 9.94878 16.9578 10.0279 16.8214L11.8187 13.6961V9.43223C11.8187 9.19376 12.0125 9 12.2509 9H14.5244H16.7979C17.0364 9 17.2302 9.19376 17.2302 9.43223V13.6961L19.021 16.8214C19.099 16.9578 19.0004 17.1287 18.8433 17.1287H14.5244" fill="#7EFF9B"/>
<path d="M14.5244 21.467V17.1287H10.2056C10.0474 17.1287 9.94878 16.9578 10.0279 16.8214L11.8187 13.6961V9.43223C11.8187 9.19376 12.0125 9 12.2509 9H14.5244H16.7979C17.0364 9 17.2302 9.19376 17.2302 9.43223V13.6961L19.021 16.8214C19.099 16.9578 19.0004 17.1287 18.8433 17.1287H14.5244" stroke="#7EFF9B" stroke-width="1.5" stroke-miterlimit="10" stroke-linecap="round"/>
</svg>
