<svg width="17" height="17" viewBox="0 0 17 17" fill="none" xmlns="http://www.w3.org/2000/svg">
<path d="M14.375 8.25H13.25V5.25C13.25 4.42125 12.5787 3.75 11.75 3.75H8.75V2.625C8.75 1.59 7.91 0.75 6.875 0.75C5.84 0.75 5 1.59 5 2.625V3.75H2C1.17125 3.75 0.5075 4.42125 0.5075 5.25L0.50375 8.1H1.625C2.7425 8.1 3.65 9.0075 3.65 10.125C3.65 11.2425 2.7425 12.15 1.625 12.15H0.50375L0.5 15C0.5 15.8287 1.17125 16.5 2 16.5H4.85V15.375C4.85 14.2575 5.7575 13.35 6.875 13.35C7.9925 13.35 8.9 14.2575 8.9 15.375V16.5H11.75C12.5787 16.5 13.25 15.8287 13.25 15V12H14.375C15.41 12 16.25 11.16 16.25 10.125C16.25 9.09 15.41 8.25 14.375 8.25Z" fill="url(#paint0_linear_2208_8321)"/>
<defs>
<linearGradient id="paint0_linear_2208_8321" x1="8.375" y1="0.75" x2="8.375" y2="16.5" gradientUnits="userSpaceOnUse">
<stop stop-color="#FFDF8B"/>
<stop offset="1" stop-color="#FFC989"/>
</linearGradient>
</defs>
</svg>
