<svg width="12" height="18" viewBox="0 0 12 18" fill="none" xmlns="http://www.w3.org/2000/svg">
<path fill-rule="evenodd" clip-rule="evenodd" d="M2.35938 1.63593L2.90896 2.18551L3.93942 2.529L2.90896 7.68131L0.298459 10.2918C-0.00381012 10.5941 0.202282 11.1162 0.655685 11.1162L4.96988 11.1162L5.65686 17.2989L6.34383 11.1162H10.658C10.7543 11.118 10.8489 11.0911 10.9299 11.039C11.0108 10.9869 11.0745 10.912 11.1128 10.8236C11.151 10.7353 11.1622 10.6376 11.1448 10.5429C11.1275 10.4482 11.0824 10.3608 11.0153 10.2918L8.40476 7.68131L7.37429 2.529L8.40476 2.18551L8.95434 1.63593C9.2566 1.33366 9.05051 0.811563 8.59711 0.811564L2.71661 0.811564C2.62036 0.809779 2.52574 0.836633 2.44478 0.888718C2.36382 0.940803 2.30016 1.01577 2.26189 1.1041C2.22361 1.19243 2.21244 1.29015 2.2298 1.38484C2.24716 1.47953 2.29226 1.56692 2.35938 1.63593Z" fill="url(#paint0_linear_2208_8313)"/>
<defs>
<linearGradient id="paint0_linear_2208_8313" x1="0.748497" y1="2.56937" x2="10.5675" y2="12.3883" gradientUnits="userSpaceOnUse">
<stop stop-color="#FFDF8B"/>
<stop offset="1" stop-color="#FFC989"/>
</linearGradient>
</defs>
</svg>
