<svg width="161" height="161" viewBox="0 0 161 161" fill="none" xmlns="http://www.w3.org/2000/svg">
<circle cx="80.1892" cy="80.1892" r="58.1081" fill="url(#paint0_linear_2198_8075)"/>
<path d="M54.677 104.957C52.0207 104.957 49.8613 102.797 49.8613 100.141C49.8613 99.3003 50.0796 98.4923 50.5115 97.7447L77.0278 51.8218C77.8962 50.3172 79.4519 49.4209 81.1886 49.4209C82.9254 49.4209 84.4811 50.3172 85.3495 51.8218L111.861 97.7447C112.293 98.4923 112.511 99.3003 112.511 100.141C112.511 102.797 110.352 104.957 107.696 104.957H54.677Z" fill="url(#paint1_linear_2198_8075)"/>
<path d="M81.1894 49.1895C82.8844 49.1895 84.584 50.03 85.5546 51.7064L112.066 97.6293C112.535 98.442 112.749 99.3011 112.749 100.142C112.749 99.3011 112.535 98.442 112.066 97.6293L85.55 51.7064C84.5794 50.0253 82.8844 49.1895 81.1847 49.1895H81.1894ZM81.1894 49.1895C79.4944 49.1895 77.7948 50.03 76.8242 51.7064L50.3125 97.6293C49.8435 98.442 49.6299 99.3011 49.6299 100.142C49.6299 99.3011 49.8435 98.442 50.3125 97.6293L76.8242 51.7064C77.7948 50.0253 79.4897 49.1895 81.1894 49.1895ZM112.749 100.142C112.749 102.775 110.645 105.189 107.701 105.189H54.6777C51.7335 105.189 49.6299 102.775 49.6299 100.142C49.6299 102.775 51.7335 105.189 54.6777 105.189H107.701C110.641 105.189 112.749 102.775 112.749 100.142Z" fill="black"/>
<circle cx="81.1899" cy="95.9008" r="2.13228" fill="#2C1414"/>
<path d="M81.1895 62V87" stroke="#2C1414" stroke-width="4" stroke-linecap="round" stroke-linejoin="round"/>
<defs>
<linearGradient id="paint0_linear_2198_8075" x1="80.1892" y1="22.0811" x2="80.1892" y2="138.297" gradientUnits="userSpaceOnUse">
<stop stop-color="#FF7E7E" stop-opacity="0.15"/>
<stop offset="1" stop-color="#E46565" stop-opacity="0.3"/>
</linearGradient>
<linearGradient id="paint1_linear_2198_8075" x1="81.1863" y1="49.4209" x2="81.1863" y2="104.957" gradientUnits="userSpaceOnUse">
<stop stop-color="#FF7E7E" stop-opacity="0.5"/>
<stop offset="0.0001" stop-color="#FF7E7E" stop-opacity="0.507812"/>
<stop offset="1" stop-color="#E46565"/>
</linearGradient>
</defs>
</svg>
