<svg width="162" height="162" viewBox="0 0 162 162" fill="none" xmlns="http://www.w3.org/2000/svg">
<g filter="url(#filter0_i_1053_5901)">
<circle cx="80.9997" cy="81" r="58.1081" fill="url(#paint0_linear_1053_5901)"/>
</g>
<g filter="url(#filter1_i_1053_5901)">
<path d="M55.4875 105.768C52.8313 105.768 50.6719 103.608 50.6719 100.952C50.6719 100.111 50.8901 99.3035 51.322 98.5558L77.8383 52.6329C78.7067 51.1283 80.2624 50.2321 81.9992 50.2321C83.736 50.2321 85.2917 51.1283 86.1601 52.6329L112.672 98.5558C113.104 99.3035 113.322 100.111 113.322 100.952C113.322 103.608 111.162 105.768 108.506 105.768H55.4875Z" fill="url(#paint1_linear_1053_5901)"/>
</g>
<path d="M81.9999 50C83.6949 50 85.3946 50.8405 86.3651 52.517L112.877 98.4399C113.346 99.2525 113.559 100.112 113.559 100.952C113.559 100.112 113.346 99.2525 112.877 98.4399L86.3605 52.517C85.3899 50.8359 83.6949 50 81.9953 50H81.9999ZM81.9999 50C80.3049 50 78.6053 50.8405 77.6347 52.517L51.1231 98.4399C50.654 99.2525 50.4404 100.112 50.4404 100.952C50.4404 100.112 50.654 99.2525 51.1231 98.4399L77.6347 52.517C78.6053 50.8359 80.3003 50 81.9999 50ZM113.559 100.952C113.559 103.585 111.456 106 108.512 106H55.4883C52.5441 106 50.4404 103.585 50.4404 100.952C50.4404 103.585 52.5441 106 55.4883 106H108.512C111.451 106 113.559 103.585 113.559 100.952Z" fill="black"/>
<circle cx="82.0004" cy="93.7117" r="2.13228" fill="#2C1414"/>
<path d="M82 71.3229L82 86.2489" stroke="#2C1414" stroke-width="4.44998" stroke-linecap="round" stroke-linejoin="round"/>
<defs>
<filter id="filter0_i_1053_5901" x="22.8916" y="22.8919" width="116.216" height="116.216" filterUnits="userSpaceOnUse" color-interpolation-filters="sRGB">
<feFlood flood-opacity="0" result="BackgroundImageFix"/>
<feBlend mode="normal" in="SourceGraphic" in2="BackgroundImageFix" result="shape"/>
<feColorMatrix in="SourceAlpha" type="matrix" values="0 0 0 0 0 0 0 0 0 0 0 0 0 0 0 0 0 0 127 0" result="hardAlpha"/>
<feOffset dy="1.13158"/>
<feComposite in2="hardAlpha" operator="arithmetic" k2="-1" k3="1"/>
<feColorMatrix type="matrix" values="0 0 0 0 1 0 0 0 0 0.541176 0 0 0 0 0.541176 0 0 0 0.5 0"/>
<feBlend mode="normal" in2="shape" result="effect1_innerShadow_1053_5901"/>
</filter>
<filter id="filter1_i_1053_5901" x="50.6719" y="50.2321" width="62.6504" height="55.5356" filterUnits="userSpaceOnUse" color-interpolation-filters="sRGB">
<feFlood flood-opacity="0" result="BackgroundImageFix"/>
<feBlend mode="normal" in="SourceGraphic" in2="BackgroundImageFix" result="shape"/>
<feColorMatrix in="SourceAlpha" type="matrix" values="0 0 0 0 0 0 0 0 0 0 0 0 0 0 0 0 0 0 127 0" result="hardAlpha"/>
<feOffset dy="1.06614"/>
<feComposite in2="hardAlpha" operator="arithmetic" k2="-1" k3="1"/>
<feColorMatrix type="matrix" values="0 0 0 0 1 0 0 0 0 0.541176 0 0 0 0 0.541176 0 0 0 1 0"/>
<feBlend mode="normal" in2="shape" result="effect1_innerShadow_1053_5901"/>
</filter>
<linearGradient id="paint0_linear_1053_5901" x1="80.9997" y1="22.8919" x2="80.9997" y2="139.108" gradientUnits="userSpaceOnUse">
<stop stop-color="#FF7E7E" stop-opacity="0.15"/>
<stop offset="1" stop-color="#E46565" stop-opacity="0.3"/>
</linearGradient>
<linearGradient id="paint1_linear_1053_5901" x1="81.9969" y1="50.2321" x2="81.9969" y2="105.768" gradientUnits="userSpaceOnUse">
<stop stop-color="#FF7E7E" stop-opacity="0.5"/>
<stop offset="0.0001" stop-color="#FF7E7E" stop-opacity="0.507812"/>
<stop offset="1" stop-color="#E46565"/>
</linearGradient>
</defs>
</svg>
