<svg width="22" height="22" viewBox="0 0 22 22" fill="none" xmlns="http://www.w3.org/2000/svg">
<rect width="22" height="22" rx="11" fill="#FE5C5C" fill-opacity="0.3"/>
<path d="M12.1749 11L15.7583 7.42499C15.9152 7.26807 16.0034 7.05524 16.0034 6.83333C16.0034 6.61141 15.9152 6.39858 15.7583 6.24166C15.6014 6.08474 15.3885 5.99658 15.1666 5.99658C14.9447 5.99658 14.7319 6.08474 14.575 6.24166L10.9999 9.82499L7.42495 6.24166C7.26803 6.08474 7.0552 5.99658 6.83328 5.99658C6.61136 5.99658 6.39854 6.08474 6.24162 6.24166C6.0847 6.39858 5.99654 6.61141 5.99654 6.83333C5.99654 7.05524 6.0847 7.26807 6.24162 7.42499L9.82495 11L6.24162 14.575C6.16351 14.6525 6.10151 14.7446 6.05921 14.8462C6.0169 14.9477 5.99512 15.0566 5.99512 15.1667C5.99512 15.2767 6.0169 15.3856 6.05921 15.4871C6.10151 15.5887 6.16351 15.6809 6.24162 15.7583C6.31908 15.8364 6.41125 15.8984 6.5128 15.9407C6.61435 15.983 6.72327 16.0048 6.83328 16.0048C6.94329 16.0048 7.05221 15.983 7.15376 15.9407C7.25531 15.8984 7.34748 15.8364 7.42495 15.7583L10.9999 12.175L14.575 15.7583C14.6524 15.8364 14.7446 15.8984 14.8461 15.9407C14.9477 15.983 15.0566 16.0048 15.1666 16.0048C15.2766 16.0048 15.3855 15.983 15.4871 15.9407C15.5886 15.8984 15.6808 15.8364 15.7583 15.7583C15.8364 15.6809 15.8984 15.5887 15.9407 15.4871C15.983 15.3856 16.0048 15.2767 16.0048 15.1667C16.0048 15.0566 15.983 14.9477 15.9407 14.8462C15.8984 14.7446 15.8364 14.6525 15.7583 14.575L12.1749 11Z" fill="#E54D4D"/>
</svg>
