<svg width="47" height="47" viewBox="0 0 47 47" fill="none" xmlns="http://www.w3.org/2000/svg">
<path d="M46.6392 23.1702C46.6392 10.404 36.2918 0.0549316 23.5276 0.0549316C10.7634 0.0549316 0.416016 10.404 0.416016 23.1702C0.416016 35.9365 10.7634 46.2855 23.5276 46.2855C36.2918 46.2855 46.6392 35.9365 46.6392 23.1702Z" fill="#F3E4CD"/>
<path fill-rule="evenodd" clip-rule="evenodd" d="M23.5301 46.2855C30.1516 46.2855 36.1227 43.5017 40.3372 39.0408L39.9199 38.5804C38.2717 36.7616 35.4755 36.6058 33.6369 38.2305L32.8091 38.9624C28.9384 42.3832 23.075 42.1326 19.4815 38.4529C17.7673 36.6978 14.9668 36.6352 13.1962 38.2966L9.63065 41.6421C13.4992 44.5572 18.3128 46.2855 23.5301 46.2855ZM30.2048 34.3154C34.0794 30.891 39.9268 31.1319 43.5106 34.8026C45.5045 31.3858 46.6466 27.4114 46.6466 23.1702C46.6466 18.1774 45.0636 13.5544 42.3722 9.7755C41.421 9.84005 40.4831 10.2082 39.7133 10.8885L38.8854 11.6203C35.0145 15.0411 29.1514 14.7906 25.5579 11.1109C23.8436 9.35572 21.0432 9.29325 19.2725 10.9546L13.8724 16.0214L10.3254 12.2106L15.7255 7.14386C19.5751 3.53195 25.5957 3.69994 29.2671 7.45934C30.9448 9.17711 33.6724 9.27891 35.453 7.70524L36.2809 6.97342C36.9541 6.37852 37.6868 5.89421 38.4569 5.51932C34.4294 2.11043 29.2198 0.0549316 23.5301 0.0549316C12.0053 0.0549316 2.45028 8.48813 0.700062 19.5199C4.30807 17.8696 8.7014 18.567 11.627 21.5627L11.9405 21.8837C13.5366 23.5181 16.0998 23.6909 17.8991 22.2852L21.5803 19.4095C25.2299 16.5584 30.3781 16.6966 33.8705 19.7393L40.2023 25.2556L36.7978 29.1949L30.4659 23.6788C28.8475 22.2687 26.4616 22.2047 24.7704 23.5259L21.0893 26.4016C17.2065 29.4348 11.6754 29.0621 8.23114 25.5353L7.9176 25.2143C6.21221 23.468 3.43051 23.407 1.65079 25.0768L0.593456 26.069C1.16086 30.6039 3.04209 34.7307 5.84415 38.056L9.64918 34.4858C13.4987 30.8739 19.5195 31.042 23.1908 34.8014C24.8684 36.519 27.596 36.621 29.3766 35.0472L30.2048 34.3154Z" fill="url(#paint0_linear_200_3039)"/>
<defs>
<linearGradient id="paint0_linear_200_3039" x1="23.62" y1="0.0549319" x2="32.7405" y2="46.2722" gradientUnits="userSpaceOnUse">
<stop stop-color="#8F305D"/>
<stop offset="1" stop-color="#E73D3E"/>
</linearGradient>
</defs>
</svg>
