<svg width="124" height="124" viewBox="0 0 124 124" fill="none" xmlns="http://www.w3.org/2000/svg">
<g filter="url(#filter0_i_181_14138)">
<circle cx="62" cy="62" r="62" fill="url(#paint0_linear_181_14138)"/>
</g>
<path d="M68.3026 36L67.3801 40.9542H44.8337C36.5487 40.9542 30.3248 45.8093 28.9162 53.3622L26 69.0671H42.4845L44.3701 58.9335C44.8157 56.5464 46.7823 55.0106 49.4059 55.0106H81.2454L84.7826 36H68.2981H68.3026Z" fill="url(#paint1_linear_181_14138)"/>
<path d="M55.4271 88.0777L56.3496 83.1235H78.8915C87.1765 83.1235 93.4004 78.2684 94.809 70.7155L97.7297 55.0106H81.2452L79.3596 65.1442C78.914 67.5313 76.9474 69.0671 74.3237 69.0671H42.4843L38.9471 88.0777H55.4316H55.4271Z" fill="url(#paint2_linear_181_14138)"/>
<defs>
<filter id="filter0_i_181_14138" x="0" y="0" width="124" height="124" filterUnits="userSpaceOnUse" color-interpolation-filters="sRGB">
<feFlood flood-opacity="0" result="BackgroundImageFix"/>
<feBlend mode="normal" in="SourceGraphic" in2="BackgroundImageFix" result="shape"/>
<feColorMatrix in="SourceAlpha" type="matrix" values="0 0 0 0 0 0 0 0 0 0 0 0 0 0 0 0 0 0 127 0" result="hardAlpha"/>
<feOffset dy="1.13158"/>
<feComposite in2="hardAlpha" operator="arithmetic" k2="-1" k3="1"/>
<feColorMatrix type="matrix" values="0 0 0 0 1 0 0 0 0 0.831373 0 0 0 0 0.541176 0 0 0 0.2 0"/>
<feBlend mode="normal" in2="shape" result="effect1_innerShadow_181_14138"/>
</filter>
<linearGradient id="paint0_linear_181_14138" x1="62" y1="0" x2="62" y2="124" gradientUnits="userSpaceOnUse">
<stop stop-color="#231B0F"/>
<stop offset="1" stop-color="#4A320F"/>
</linearGradient>
<linearGradient id="paint1_linear_181_14138" x1="61.8648" y1="36" x2="61.8648" y2="88.0777" gradientUnits="userSpaceOnUse">
<stop stop-color="#FFDF8B"/>
<stop offset="1" stop-color="#FFC989"/>
</linearGradient>
<linearGradient id="paint2_linear_181_14138" x1="61.8648" y1="36" x2="61.8648" y2="88.0777" gradientUnits="userSpaceOnUse">
<stop stop-color="#FFDF8B"/>
<stop offset="1" stop-color="#FFC989"/>
</linearGradient>
</defs>
</svg>
